<?xml version="1.0" standalone="no"?>
<!DOCTYPE svg PUBLIC "-//W3C//DTD SVG 20010904//EN"
 "http://www.w3.org/TR/2001/REC-SVG-20010904/DTD/svg10.dtd">
<svg version="1.0" xmlns="http://www.w3.org/2000/svg"
 width="300.000000pt" height="300.000000pt" viewBox="0 0 300.000000 300.000000"
 preserveAspectRatio="xMidYMid meet">

<g transform="translate(0.000000,300.000000) scale(0.100000,-0.100000)"
fill="#000000" stroke="none">
<path d="M1201 2005 c-146 -84 -271 -161 -278 -171 -10 -14 -13 -86 -13 -325
l0 -308 26 -28 26 -28 -8 25 c-13 47 -17 589 -4 620 15 35 12 33 289 192 144
82 235 128 253 128 25 0 227 -106 228 -120 0 -3 -11 -10 -25 -16 -22 -11 -33
-7 -97 34 -45 29 -83 46 -102 46 -22 0 -96 -38 -243 -122 -116 -68 -219 -132
-229 -144 -15 -16 -20 -40 -22 -117 -2 -53 -9 -102 -15 -109 -8 -10 -7 -16 1
-21 9 -5 10 -41 5 -142 -7 -110 -9 -124 -14 -79 -5 52 -6 50 -7 -26 -3 -109
24 -169 58 -130 7 10 8 16 0 21 -5 3 -10 11 -10 17 0 6 8 4 18 -5 10 -10 22
-17 26 -17 8 0 297 -168 309 -180 8 -7 -39 -25 -56 -21 -5 1 -6 -3 -2 -9 3 -5
10 -10 14 -10 5 0 40 -18 77 -40 78 -45 104 -49 145 -19 16 11 29 17 29 14 0
-3 13 3 29 14 16 12 33 21 39 21 5 0 15 7 22 15 7 8 16 13 20 10 4 -2 16 3 26
13 11 9 26 18 33 20 7 1 20 9 28 17 8 8 18 15 23 15 5 0 15 6 22 14 8 7 36 24
63 37 65 32 127 72 145 94 12 15 15 69 18 304 1 157 4 291 6 296 3 6 5 -123 5
-285 1 -320 -1 -330 -54 -361 -16 -9 -129 -74 -249 -143 -121 -70 -230 -129
-242 -132 -27 -7 -86 19 -186 78 -97 59 -215 124 -203 111 6 -6 85 -56 178
-112 111 -67 177 -101 196 -101 33 0 504 271 554 318 l27 26 0 315 c0 313 0
316 -23 343 -12 15 -134 92 -270 172 -203 119 -256 146 -285 145 -29 0 -98
-36 -301 -154z m299 -40 c8 -14 30 -33 49 -43 62 -28 64 -36 26 -73 -32 -31
-47 -58 -26 -45 5 4 20 2 33 -3 13 -6 16 -10 8 -11 -12 0 -12 -3 2 -14 31 -23
68 -156 44 -156 -6 0 -4 -5 4 -10 11 -7 4 -10 -26 -10 l-40 0 -30 70 c-41 98
-61 96 -103 -11 -20 -52 -25 -57 -59 -63 -20 -3 -53 -6 -73 -6 -44 0 -65 -20
-50 -47 5 -10 30 -34 55 -53 51 -39 53 -51 30 -129 -8 -29 -13 -59 -10 -66 6
-17 -18 -13 -76 13 -52 23 -159 128 -151 148 3 9 -2 14 -13 14 -40 0 -47 15
-52 109 -2 50 -1 110 2 134 6 42 10 46 84 89 118 71 336 188 348 188 6 0 17
-11 24 -25z m10 -287 c0 -13 8 -42 17 -65 l18 -41 66 -7 c37 -4 78 -4 91 0 18
5 15 -1 -17 -29 -22 -19 -47 -35 -55 -35 -13 -1 -13 0 0 9 27 17 5 18 -48 1
-63 -19 -70 -32 -24 -46 25 -7 32 -14 32 -35 0 -14 5 -31 12 -38 7 -7 9 -12 4
-12 -4 0 1 -13 10 -30 10 -16 14 -33 10 -37 -5 -4 -11 -2 -13 5 -3 6 -10 9
-15 6 -6 -4 -8 -2 -5 3 6 9 -57 107 -93 146 -4 5 -36 -30 -70 -77 -34 -47 -64
-86 -66 -86 -5 0 8 31 28 68 10 18 19 45 20 59 2 18 12 30 33 40 19 8 22 12
10 11 -11 -1 -26 1 -34 6 -10 6 -12 5 -7 -2 4 -7 2 -12 -3 -12 -6 0 -11 5 -11
12 0 6 -3 9 -6 5 -4 -3 -21 4 -38 17 -17 13 -38 27 -46 31 -13 8 -13 6 -1 -11
14 -18 14 -18 -4 -2 -10 10 -16 20 -12 24 3 4 38 9 77 12 70 5 71 5 89 41 10
20 21 48 25 64 8 33 26 36 26 5z m514 -36 c-1 -31 -2 -59 -3 -62 -1 -3 -4 -41
-7 -85 -3 -44 -7 -86 -9 -92 -2 -7 1 -13 8 -13 8 0 7 -4 -3 -10 -11 -7 -12
-12 -4 -17 9 -6 8 -12 -2 -21 -12 -11 -14 -2 -16 55 -4 124 3 186 20 199 16
12 16 13 0 19 -13 5 -18 18 -18 44 0 28 4 37 18 38 14 1 17 -7 16 -55z m-557
-337 c-7 -17 -37 -21 -37 -5 0 6 7 10 15 10 8 0 15 5 15 12 0 6 3 9 6 5 4 -3
4 -13 1 -22z m273 -243 c0 -8 -52 -42 -64 -42 -15 0 -4 17 22 32 30 19 42 22
42 10z"/>
<path d="M1085 1490 c-3 -5 -1 -10 4 -10 6 0 11 5 11 10 0 6 -2 10 -4 10 -3 0
-8 -4 -11 -10z"/>
<path d="M1020 1121 c0 -17 38 -33 46 -19 4 6 3 8 -4 4 -6 -3 -18 1 -26 10 -9
8 -16 11 -16 5z"/>
<path d="M1070 1086 c0 -3 9 -10 20 -16 11 -6 20 -8 20 -6 0 3 -9 10 -20 16
-11 6 -20 8 -20 6z"/>
</g>
</svg>
