<svg width="32" height="32" viewBox="0 0 32 32" fill="none" xmlns="http://www.w3.org/2000/svg">
<path fill-rule="evenodd" clip-rule="evenodd" d="M16.0001 2.66666C8.64008 2.66666 2.66675 8.63999 2.66675 16C2.66675 23.36 8.64008 29.3333 16.0001 29.3333C23.3601 29.3333 29.3334 23.36 29.3334 16C29.3334 8.63999 23.3601 2.66666 16.0001 2.66666ZM12.3866 21.72L7.59993 16.9333C7.07993 16.4133 7.07993 15.5733 7.59993 15.0533C8.11993 14.5333 8.95993 14.5333 9.47993 15.0533L13.3333 18.8933L22.5066 9.71999C23.0266 9.19999 23.8666 9.19999 24.3866 9.71999C24.9066 10.24 24.9066 11.08 24.3866 11.6L14.2666 21.72C13.7599 22.24 12.9066 22.24 12.3866 21.72Z" fill="url(#paint0_linear)"/>
<defs>
<linearGradient id="paint0_linear" x1="-5.93138" y1="52.7567" x2="56.4257" y2="2.345" gradientUnits="userSpaceOnUse">
<stop stop-color="#EE2238"/>
<stop offset="1" stop-color="#BF1D67"/>
</linearGradient>
</defs>
</svg>
