<svg width="109" height="35" viewBox="0 0 109 35" fill="none" xmlns="http://www.w3.org/2000/svg">
<g clip-path="url(#clip0)">
<path d="M8.9 34.5C7.5 34.5 6 34.3 4.6 33.9C3.2 33.5 1.8 32.9 0.5 31.9C0.2 31.7 0 31.4 0 30.9C0 30.4 0.2 30.1 0.6 29.8C0.9 29.5 1.4 29.6 1.9 29.9C3.1 30.7 4.4 31.3 5.5 31.6C6.7 32 7.8 32.1 9 32.1C11 32.1 12.5 31.7 13.5 31C14.5 30.3 15 29.3 15 28C15 27 14.7 26.2 14 25.6C13.3 25 12.3 24.6 10.8 24.2L6.6 23.2C2.7 22.3 0.7 20.3 0.7 17.1C0.7 15.1 1.5 13.4 3.1 12.2C4.7 11 6.8 10.3 9.4 10.3C10.8 10.3 12.1 10.5 13.4 10.9C14.7 11.3 15.8 12 16.8 12.8C17.2 13.1 17.4 13.5 17.3 14C17.2 14.4 17 14.8 16.7 15C16.3 15.2 15.9 15.2 15.4 14.8C14.5 14.1 13.5 13.6 12.5 13.2C11.5 12.9 10.4 12.7 9.4 12.7C7.5 12.7 6.1 13.1 5.1 13.9C4.1 14.7 3.6 15.7 3.6 17C3.6 18 3.9 18.8 4.5 19.4C5.1 20 6.1 20.5 7.5 20.8L11.7 21.8C13.8 22.3 15.3 23 16.4 23.9C17.4 24.8 17.9 26.1 17.9 27.7C17.9 29.8 17.1 31.4 15.5 32.6C13.8 33.9 11.7 34.5 8.9 34.5Z" fill="white"/>
<path d="M25.8 34.4C24.8 34.4 24.3 33.9 24.3 32.9V1.5C24.3 0.5 24.8 0 25.8 0C26.8 0 27.2001 0.5 27.2001 1.5V21.4H27.3L38.1 11.6C38.5 11.3 38.8 11 39.1 10.8C39.4 10.6 39.7001 10.5 40.2001 10.5C40.8001 10.5 41.2001 10.7 41.4001 11.2C41.6001 11.7 41.4 12.1 41 12.6L30.6 22.1L42 32.2C42.5 32.7 42.7001 33.2 42.5 33.7C42.3 34.2 41.9001 34.4 41.4001 34.4C41.0001 34.4 40.6 34.3 40.3 34.1C40 33.9 39.7001 33.6 39.2001 33.3L27.3 22.9H27.2001V32.9C27.2001 33.9 26.7 34.4 25.8 34.4Z" fill="white"/>
<path d="M49 34.3C48 34.3 47.5 33.8 47.5 32.7V12.2C47.5 11.2 48 10.7 49 10.7C50 10.7 50.4 11.2 50.4 12.2V32.7C50.5 33.8 50 34.3 49 34.3Z" fill="white"/>
<path d="M64.9001 34.5C62.8001 34.5 61.1001 33.8 59.9001 32.5C58.7001 31.2 58.1001 29.3 58.1001 26.8V1.5C58.1001 0.5 58.6001 0 59.6001 0C60.6001 0 61.0001 0.5 61.0001 1.5V26.5C61.0001 30.2 62.4001 32 65.3001 32C65.6001 32 65.9001 32 66.1001 32C66.3001 32 66.6001 32 66.8001 32C67.1001 32 67.3001 32 67.4001 32.2C67.5001 32.3 67.6001 32.6 67.6001 33.1C67.6001 33.9 67.1001 34.4 66.2001 34.6C66.0001 34.7 65.7001 34.7 65.5001 34.7C65.4001 34.5 65.1001 34.5 64.9001 34.5Z" fill="white"/>
<path d="M78.6 34.5C76.5 34.5 74.8 33.8 73.6 32.5C72.4 31.2 71.8 29.3 71.8 26.8V1.5C71.8 0.5 72.3 0 73.3 0C74.3 0 74.7 0.5 74.7 1.5V26.5C74.7 30.2 76.1 32 79 32C79.3 32 79.6 32 79.8 32C80 32 80.3 32 80.5 32C80.8 32 81 32 81.1 32.2C81.2 32.3 81.3 32.6 81.3 33.1C81.3 33.9 80.8 34.4 79.9 34.6C79.7 34.7 79.4 34.7 79.2 34.7C79 34.5 78.8 34.5 78.6 34.5Z" fill="white"/>
<path d="M85.4 34.1C84.7 34.1 84.2 33.8 84 33.2C83.8 32.6 84 31.9 84.5 31.1L104.3 2.89999H85.2C84.2 2.89999 83.7 2.49999 83.7 1.59999C83.7 0.699988 84.2 0.299988 85.2 0.299988H106.5C107.3 0.299988 107.8 0.599988 108 1.19999C108.2 1.79999 108 2.49999 107.5 3.29999L87.6 31.5H107.4C108.4 31.5 108.9 31.9 108.9 32.8C108.9 33.7 108.4 34.1 107.4 34.1H85.4Z" fill="url(#paint0_linear)"/>
<path d="M46.8999 2.79999C46.8999 4.09999 47.5999 4.79999 48.9999 4.79999C50.3999 4.79999 51.0999 4.19999 51.0999 2.79999C51.0999 1.49999 50.3999 0.799988 48.9999 0.799988C47.5999 0.799988 46.8999 1.49999 46.8999 2.79999Z" fill="#EE2238"/>
</g>
<defs>
<linearGradient id="paint0_linear" x1="84" y1="-1.08583e-05" x2="109" y2="34" gradientUnits="userSpaceOnUse">
<stop stop-color="#A188EF"/>
<stop offset="0.375" stop-color="#4F8DF5"/>
<stop offset="0.520833" stop-color="#00E3EC"/>
<stop offset="0.666667" stop-color="#F4C042"/>
<stop offset="1" stop-color="#EE2238"/>
</linearGradient>
<clipPath id="clip0">
<rect width="108.9" height="34.5" fill="white"/>
</clipPath>
</defs>
</svg>
