<svg width="26" height="35" viewBox="0 0 26 35" fill="none" xmlns="http://www.w3.org/2000/svg">
<path d="M2.39996 34.1C1.69996 34.1 1.19995 33.8 0.999954 33.2C0.799954 32.6 0.999954 31.9 1.49995 31.1L21.3 2.9H2.19995C1.19995 2.9 0.699951 2.5 0.699951 1.6C0.699951 0.699999 1.19995 0.299999 2.19995 0.299999H23.5C24.3 0.299999 24.8 0.599999 25 1.2C25.2 1.8 25 2.5 24.5 3.3L4.59995 31.5H24.4C25.4 31.5 25.9 31.9 25.9 32.8C25.9 33.7 25.4 34.1 24.4 34.1H2.39996Z" fill="url(#paint0_linear)"/>
<defs>
<linearGradient id="paint0_linear" x1="0.999999" y1="5.85805e-07" x2="26" y2="34" gradientUnits="userSpaceOnUse">
<stop stop-color="#A188EF"/>
<stop offset="0.375" stop-color="#4F8DF5"/>
<stop offset="0.520833" stop-color="#00E3EC"/>
<stop offset="0.666667" stop-color="#F4C042"/>
<stop offset="1" stop-color="#EE2238"/>
</linearGradient>
</defs>
</svg>
