<?xml version="1.0" standalone="no"?>
<!DOCTYPE svg PUBLIC "-//W3C//DTD SVG 20010904//EN"
 "http://www.w3.org/TR/2001/REC-SVG-20010904/DTD/svg10.dtd">
<svg version="1.0" xmlns="http://www.w3.org/2000/svg"
 width="1120.000000pt" height="1120.000000pt" viewBox="0 0 1120.000000 1120.000000"
 preserveAspectRatio="xMidYMid meet">
<metadata>
Created by potrace 1.11, written by Peter Selinger 2001-2013
</metadata>
<g transform="translate(0.000000,1120.000000) scale(0.100000,-0.100000)"
fill="#000000" stroke="none">
<path d="M2097 11104 c-1 -1 -31 -5 -66 -8 -70 -8 -168 -37 -210 -64 -71 -46
-132 -141 -147 -227 -12 -68 -8 -239 6 -260 4 -5 13 -30 20 -53 20 -63 92
-135 170 -170 36 -16 72 -29 80 -29 8 -1 33 -5 56 -10 26 -7 1159 -10 3138
-10 1703 0 3096 -3 3096 -7 0 -3 0 -10 0 -15 0 -5 -6 -16 -13 -23 -7 -7 -38
-49 -67 -93 -30 -44 -59 -85 -65 -91 -5 -6 -39 -54 -74 -107 -36 -53 -69 -97
-73 -97 -4 0 -8 -6 -8 -12 -1 -7 -14 -29 -30 -48 -17 -19 -30 -40 -30 -47 0
-7 -3 -13 -8 -13 -4 0 -18 -18 -32 -40 -14 -22 -28 -40 -32 -40 -5 0 -8 -4 -8
-9 0 -6 -25 -45 -56 -88 -70 -99 -95 -134 -269 -383 -202 -288 -216 -308 -252
-356 -18 -24 -30 -44 -25 -44 4 0 2 -4 -4 -8 -10 -6 -120 -161 -340 -477 -34
-49 -70 -97 -78 -106 -9 -9 -16 -19 -16 -22 0 -6 -53 -84 -97 -143 -4 -5 -12
-17 -18 -26 -24 -38 -99 -143 -105 -148 -4 -3 -15 -20 -25 -37 -11 -18 -23
-33 -27 -33 -4 0 -8 -5 -8 -10 0 -6 -26 -46 -57 -90 -32 -44 -74 -102 -93
-130 -19 -28 -51 -73 -70 -99 -19 -27 -41 -57 -47 -68 -40 -59 -274 -390 -282
-400 -6 -7 -11 -17 -11 -23 0 -5 -3 -10 -8 -10 -4 0 -18 -18 -32 -40 -14 -22
-28 -40 -32 -40 -5 0 -8 -6 -8 -13 0 -7 -13 -28 -30 -47 -16 -19 -29 -39 -30
-43 0 -4 -5 -13 -10 -20 -22 -25 -47 -59 -88 -119 -90 -131 -282 -403 -292
-415 -5 -6 -22 -31 -37 -55 -27 -42 -119 -173 -136 -193 -7 -8 -186 -265 -227
-325 -12 -17 -123 -174 -146 -205 -56 -78 -161 -231 -172 -251 -7 -13 -17 -24
-23 -24 -5 0 -9 -7 -9 -15 0 -8 -4 -15 -10 -15 -5 0 -10 -4 -10 -10 0 -5 -15
-29 -32 -53 -18 -24 -40 -54 -48 -67 -8 -12 -30 -42 -47 -66 -18 -23 -33 -46
-33 -49 0 -6 -14 -24 -41 -53 -9 -9 -18 -24 -21 -32 -3 -8 -29 -46 -57 -83
-28 -37 -51 -70 -51 -72 0 -3 -77 -113 -154 -220 -8 -11 -60 -85 -116 -165
-55 -80 -108 -154 -116 -165 -26 -36 -139 -196 -154 -220 -8 -13 -49 -71 -90
-129 -83 -118 -276 -392 -312 -444 -13 -18 -29 -39 -35 -47 -7 -7 -13 -16 -13
-20 0 -3 -5 -11 -10 -18 -20 -23 -100 -137 -100 -142 0 -3 -7 -13 -15 -22 -8
-10 -73 -101 -145 -203 -71 -102 -134 -192 -140 -200 -6 -8 -45 -64 -88 -123
-42 -60 -84 -119 -92 -131 -8 -12 -33 -49 -55 -81 -22 -32 -44 -65 -50 -74 -5
-9 -12 -18 -15 -21 -3 -3 -17 -21 -30 -40 -13 -19 -27 -37 -30 -40 -5 -5 -91
-131 -115 -169 -5 -9 -12 -18 -16 -21 -3 -3 -63 -88 -134 -190 -71 -102 -133
-186 -137 -188 -4 -2 -8 -8 -8 -12 0 -8 -123 -186 -150 -217 -5 -7 -10 -17
-10 -23 0 -5 -3 -10 -8 -10 -14 0 -149 -240 -135 -240 5 0 3 -4 -3 -8 -14 -9
-62 -158 -71 -219 -10 -75 -5 -176 13 -230 23 -70 38 -103 46 -103 5 0 8 -6 8
-14 0 -25 93 -106 155 -136 33 -15 87 -33 119 -40 46 -9 885 -12 3660 -11
1981 1 3610 3 3621 4 48 7 165 42 165 49 0 4 8 8 18 8 25 0 106 79 130 127 11
21 26 58 33 83 15 53 20 215 8 248 -5 12 -10 36 -11 52 -1 17 -5 30 -8 30 -3
0 -11 15 -18 33 -27 76 -161 169 -262 183 -119 16 -498 22 -520 9 -6 -3 -10
-3 -10 2 0 9 -83 8 -106 -1 -8 -3 -14 -2 -14 2 0 8 -202 7 -224 -1 -8 -3 -16
-3 -19 0 -9 8 -237 9 -237 0 0 -5 -5 -5 -11 -1 -14 8 -325 7 -339 -1 -6 -3
-10 -3 -10 2 0 9 -83 8 -106 -1 -8 -3 -14 -2 -14 2 0 8 -202 7 -224 -1 -8 -3
-16 -3 -19 0 -9 8 -237 9 -237 0 0 -5 -5 -5 -11 -1 -14 8 -325 7 -339 -1 -6
-3 -10 -3 -10 2 0 9 -83 8 -106 -1 -8 -3 -14 -2 -14 2 0 8 -202 7 -224 -1 -8
-3 -16 -3 -19 0 -9 8 -237 9 -237 0 0 -5 -5 -5 -11 -1 -14 8 -325 7 -339 -1
-6 -3 -10 -3 -10 2 0 9 -83 8 -106 -1 -8 -3 -14 -2 -14 2 0 8 -202 7 -224 -1
-8 -3 -16 -3 -19 0 -9 8 -237 9 -237 0 0 -5 -5 -5 -11 -1 -14 8 -325 7 -339
-1 -6 -3 -10 -3 -10 2 0 9 -83 8 -106 -1 -8 -3 -14 -2 -14 2 0 8 -202 7 -224
-1 -8 -3 -16 -3 -19 0 -9 8 -237 9 -237 0 0 -5 -5 -5 -11 -1 -14 8 -325 7
-339 -1 -6 -3 -10 -3 -10 2 0 9 -83 8 -106 -1 -8 -3 -14 -2 -14 2 0 8 -202 7
-224 -1 -8 -3 -16 -3 -19 0 -9 8 -237 9 -237 0 0 -5 -5 -5 -11 -1 -14 8 -204
8 -218 -1 -6 -3 -11 -2 -11 2 0 5 -27 6 -60 3 -33 -3 -60 -3 -60 0 0 3 -33 4
-72 2 -84 -3 -131 -3 -135 2 -3 2 75 124 87 136 3 3 21 28 40 55 19 28 38 51
42 53 4 2 8 8 8 13 0 9 74 116 89 129 3 3 11 13 16 22 29 49 121 178 128 178
4 0 7 6 7 14 0 8 3 16 8 18 4 2 21 23 37 48 29 43 34 50 63 84 6 8 12 18 12
21 0 5 69 105 80 115 3 3 19 25 35 50 17 25 38 54 48 64 9 11 17 23 17 26 0 4
11 20 25 36 14 16 25 33 25 37 0 5 6 14 13 21 6 8 19 24 27 36 8 13 31 44 50
71 19 26 41 56 47 66 7 10 75 106 151 213 76 107 153 218 172 245 19 28 37 52
42 53 4 2 8 10 8 18 0 8 5 14 10 14 6 0 10 6 10 14 0 8 4 16 8 18 4 2 28 32
52 68 25 36 47 67 50 70 5 5 25 33 60 85 27 40 139 200 147 210 5 6 24 33 43
60 18 28 37 52 40 55 4 3 15 20 25 38 11 17 23 32 27 32 4 0 8 7 8 15 0 8 5
15 10 15 6 0 10 6 10 14 0 8 4 16 8 18 8 3 391 543 559 788 10 14 20 27 23 30
3 3 21 28 40 55 19 28 38 52 42 53 4 2 8 8 8 13 0 11 75 118 130 186 6 7 10
15 10 19 0 5 17 28 60 81 6 7 10 14 10 17 0 2 48 72 108 155 59 83 120 170
137 194 126 180 398 565 408 578 17 22 71 99 165 234 23 33 102 146 176 250
75 105 141 198 148 209 7 10 28 38 46 62 17 23 32 47 32 53 0 5 4 11 8 13 4 2
28 32 52 68 25 36 54 77 65 91 11 14 26 35 32 45 7 10 51 73 97 139 47 66 95
135 108 153 13 18 29 39 36 47 6 7 12 18 12 24 0 6 5 11 10 11 6 0 10 7 10 15
0 8 3 15 8 15 4 0 23 24 42 53 19 28 38 57 42 62 5 6 89 125 188 265 99 140
184 260 190 267 5 7 10 16 10 22 0 5 7 12 16 15 9 4 14 9 11 12 -3 4 -1 12 6
20 23 26 33 39 78 104 24 36 83 118 129 183 47 65 89 127 95 138 5 10 13 19
17 19 5 0 8 4 8 10 0 5 9 21 21 34 12 13 20 27 19 31 -1 4 2 11 7 14 5 3 35
42 66 86 31 44 61 85 65 90 4 6 31 44 60 85 90 131 220 315 229 325 5 6 18 25
28 43 11 17 23 32 27 32 4 0 8 7 8 15 0 9 7 18 15 21 8 4 15 12 15 20 0 8 5
14 10 14 6 0 10 4 10 10 0 5 15 30 33 54 17 24 40 54 49 67 9 13 88 124 175
247 87 123 163 232 169 243 6 11 21 31 33 45 11 13 21 26 21 29 0 4 55 81 80
112 49 61 161 258 181 322 6 20 15 41 19 46 9 13 23 66 37 145 26 148 -20 312
-113 404 -48 47 -124 92 -164 98 -14 1 -27 6 -30 10 -3 3 -25 9 -50 13 -36 5
-6997 14 -7003 9z"/>
</g>
</svg>
