<svg width="48" height="48" viewBox="0 0 48 48" fill="none" xmlns="http://www.w3.org/2000/svg">
<path fill-rule="evenodd" clip-rule="evenodd" d="M24 0C10.752 0 0 10.752 0 24C0 37.248 10.752 48 24 48C37.248 48 48 37.248 48 24C48 10.752 37.248 0 24 0ZM21.6 12V21.6H12V26.4H21.6V36H26.4V26.4H36V21.6H26.4V12H21.6ZM4.79993 24C4.79993 34.584 13.4159 43.2 23.9999 43.2C34.5839 43.2 43.1999 34.584 43.1999 24C43.1999 13.416 34.5839 4.80002 23.9999 4.80002C13.4159 4.80002 4.79993 13.416 4.79993 24Z" fill="white" fill-opacity="0.12"/>
</svg>
