<svg width="18" height="18" viewBox="0 0 18 18" fill="none" xmlns="http://www.w3.org/2000/svg">
<path fill-rule="evenodd" clip-rule="evenodd" d="M11.71 11.0001H12.5L17.49 16.0001L16 17.4901L11 12.5001V11.7101L10.73 11.4301C9.59 12.4101 8.11 13.0001 6.5 13.0001C2.91 13.0001 0 10.0901 0 6.50006C0 2.91006 2.91 6.10352e-05 6.5 6.10352e-05C10.09 6.10352e-05 13 2.91006 13 6.50006C13 8.11006 12.41 9.59006 11.43 10.7301L11.71 11.0001ZM2 6.50006C2 8.99006 4.01 11.0001 6.5 11.0001C8.99 11.0001 11 8.99006 11 6.50006C11 4.01006 8.99 2.00006 6.5 2.00006C4.01 2.00006 2 4.01006 2 6.50006Z" fill="white" fill-opacity="0.54"/>
</svg>
