<svg width="20" height="20" viewBox="0 0 20 20" fill="none" xmlns="http://www.w3.org/2000/svg">
<path d="M19.4221 13.3116C19.4221 13.3159 19.4178 13.3203 19.4178 13.3246C19.4178 13.3289 19.4134 13.3332 19.4134 13.3332C18.0274 17.1761 14.3341 19.9198 10.0022 19.9198C4.47534 19.9198 0 15.4624 0 9.96207C0 9.71972 0.00868999 9.48171 0.02607 9.24369C0.02607 9.23936 0.02607 9.23936 0.02607 9.23504L0.0304149 9.20907C0.0304149 9.2134 0.0304149 9.21773 0.0304149 9.22205L11.3404 7.17944L5.23572 13.2597C5.18792 13.3289 5.14447 13.4025 5.10971 13.4804C4.97936 13.7573 4.93591 14.0689 4.9924 14.3892C5.10971 15.0253 5.60939 15.5013 6.21768 15.6139C6.31327 15.6312 6.40886 15.6398 6.50445 15.6398C6.52618 15.6398 6.55225 15.6398 6.57397 15.6398L6.98675 15.5663L19.4221 13.3116Z" fill="url(#paint0_linear)"/>
<path d="M20 9.96205C20 10.2304 19.9913 10.4987 19.9696 10.7627C19.9696 10.767 19.9696 10.7713 19.9696 10.7713C19.9696 10.7756 19.9696 10.78 19.9696 10.78L9.12445 12.7533L15.0119 6.94574L15.0684 6.88948C15.1944 6.75965 15.2943 6.61252 15.3682 6.4524C15.4942 6.17976 15.5377 5.86385 15.4812 5.54794C15.3639 4.8988 14.8468 4.41844 14.2255 4.30593C14.1386 4.28862 14.0473 4.28429 13.9517 4.28429H13.9344L13.4173 4.37949L0.547436 6.71205C0.547436 6.71638 0.543091 6.72071 0.543091 6.72503L0.547436 6.7034C0.547436 6.69907 0.551781 6.69474 0.551781 6.69474C1.91176 2.79561 5.62673 0 10.0021 0C15.5246 0 20 4.45739 20 9.96205Z" fill="url(#paint1_linear)"/>
<defs>
<linearGradient id="paint0_linear" x1="0" y1="13.5495" x2="19.4214" y2="13.5495" gradientUnits="userSpaceOnUse">
<stop stop-color="#EE2238"/>
<stop offset="1" stop-color="#BF1D67"/>
</linearGradient>
<linearGradient id="paint1_linear" x1="0.543569" y1="6.37562" x2="20.0016" y2="6.37562" gradientUnits="userSpaceOnUse">
<stop stop-color="#EE2238"/>
<stop offset="1" stop-color="#BF1D67"/>
</linearGradient>
</defs>
</svg>
