<svg width="20" height="20" viewBox="0 0 20 20" fill="none" xmlns="http://www.w3.org/2000/svg">
<g opacity="0.54">
<path d="M19.4221 13.3117C19.4221 13.316 19.4178 13.3203 19.4178 13.3246C19.4178 13.329 19.4134 13.3333 19.4134 13.3333C18.0274 17.1762 14.3341 19.9198 10.0022 19.9198C4.47534 19.9198 0 15.4625 0 9.96213C0 9.71978 0.00868999 9.48177 0.02607 9.24375C0.02607 9.23942 0.02607 9.23942 0.02607 9.2351L0.0304149 9.20913C0.0304149 9.21346 0.0304149 9.21779 0.0304149 9.22211L11.3404 7.1795L5.23572 13.2597C5.18792 13.329 5.14447 13.4025 5.10971 13.4804C4.97936 13.7574 4.93591 14.069 4.9924 14.3892C5.10971 15.0254 5.60939 15.5014 6.21768 15.6139C6.31327 15.6312 6.40886 15.6399 6.50445 15.6399C6.52618 15.6399 6.55225 15.6399 6.57397 15.6399L6.98675 15.5663L19.4221 13.3117Z" fill="black" />
<path d="M20 9.96211C20 10.2304 19.9913 10.4987 19.9696 10.7627C19.9696 10.767 19.9696 10.7714 19.9696 10.7714C19.9696 10.7757 19.9696 10.78 19.9696 10.78L9.12445 12.7534L15.0119 6.9458L15.0684 6.88954C15.1944 6.75972 15.2943 6.61258 15.3682 6.45246C15.4942 6.17982 15.5377 5.86391 15.4812 5.548C15.3639 4.89886 14.8468 4.4185 14.2255 4.30599C14.1386 4.28868 14.0473 4.28435 13.9517 4.28435H13.9344L13.4173 4.37956L0.547436 6.71211C0.547436 6.71644 0.543091 6.72077 0.543091 6.72509L0.547436 6.70346C0.547436 6.69913 0.551781 6.6948 0.551781 6.6948C1.91176 2.79567 5.62673 6.10352e-05 10.0021 6.10352e-05C15.5246 6.10352e-05 20 4.45745 20 9.96211Z" fill="black" />
</g>
</svg>
